<?xml version="1.0" standalone="no"?>
<!DOCTYPE svg PUBLIC "-//W3C//DTD SVG 20010904//EN"
 "http://www.w3.org/TR/2001/REC-SVG-20010904/DTD/svg10.dtd">
<svg version="1.0" xmlns="http://www.w3.org/2000/svg"
 width="170.000000pt" height="170.000000pt" viewBox="0 0 170.000000 170.000000"
 preserveAspectRatio="xMidYMid meet">
<metadata>
Created by potrace 1.15, written by Peter Selinger 2001-2017
</metadata>
<g transform="translate(0.000000,170.000000) scale(0.100000,-0.100000)"
fill="#000000" stroke="none">
<path d="M743 1685 c-242 -53 -411 -296 -376 -541 15 -105 66 -207 141 -282
l60 -60 -51 -22 c-185 -79 -360 -251 -442 -435 -33 -75 -62 -189 -71 -277 l-6
-68 64 0 64 0 12 91 c52 381 384 652 766 625 335 -23 612 -286 658 -625 l12
-91 64 0 64 0 -6 68 c-22 217 -109 395 -263 543 -81 77 -160 131 -250 169
l-52 22 60 58 c74 73 127 178 142 284 36 247 -135 489 -380 541 -82 18 -129
18 -210 0z m253 -149 c281 -128 285 -516 6 -653 -50 -25 -68 -28 -152 -28 -84
0 -102 3 -152 28 -74 36 -139 101 -175 175 -25 50 -28 68 -28 152 0 84 4 101
28 150 92 180 296 257 473 176z"/>
</g>
</svg>
